<svg xmlns="http://www.w3.org/2000/svg" viewBox="0 0 2560 1440"><g transform="
          rotate(0 1280 720) 
          translate(-0 -0)
          scale(1)
        "><rect width="2560" height="1440" fill="rgb(238, 226, 222)"></rect><g transform="translate(0, 0)"><path fill="rgb(141, 134, 149)" fill-opacity="1" d="M0,291.476L142.222,288.297C284.444,285.117,568.889,278.758,853.333,338.778C1137.778,398.798,1422.222,525.197,1706.667,597.716C1991.111,670.236,2275.556,688.875,2417.778,698.195L2560,707.515L2560,1440L2417.778,1440C2275.556,1440,1991.111,1440,1706.667,1440C1422.222,1440,1137.778,1440,853.333,1440C568.889,1440,284.444,1440,142.222,1440L0,1440Z"></path></g><g transform="translate(0, 720)"><path fill="rgb(43, 42, 76)" fill-opacity="1" d="M0,361.807L142.222,360.87C284.444,359.933,568.889,358.059,853.333,325.592C1137.778,293.126,1422.222,230.066,1706.667,185.4C1991.111,140.735,2275.556,114.462,2417.778,101.326L2560,88.19L2560,720L2417.778,720C2275.556,720,1991.111,720,1706.667,720C1422.222,720,1137.778,720,853.333,720C568.889,720,284.444,720,142.222,720L0,720Z"></path></g></g></svg>